<?xml version="1.0" encoding="UTF-8" standalone="no"?><svg xmlns="http://www.w3.org/2000/svg" xmlns:xlink="http://www.w3.org/1999/xlink" contentStyleType="text/css" height="618px" preserveAspectRatio="none" style="width:2398px;height:618px;background:#FFFFFF;" version="1.1" viewBox="0 0 2398 618" width="2398px" zoomAndPan="magnify"><defs/><g><line style="stroke:#181818;stroke-width:1.5;" x1="83.5" x2="83.5" y1="63.9688" y2="83.9688"/><rect fill="#F1F1F1" height="33.9688" style="stroke:#181818;stroke-width:1.5;" width="147" x="10" y="83.9688"/><text fill="#000000" font-family="sans-serif" font-size="12" lengthAdjust="spacing" textLength="127" x="20" y="105.1074">Control de versiones</text><line style="stroke:#181818;stroke-width:1.5;" x1="83.5" x2="93.5" y1="149.9219" y2="149.9219"/><rect fill="#F1F1F1" height="33.9688" style="stroke:#181818;stroke-width:1.5;" width="36" x="93.5" y="132.9375"/><text fill="#000000" font-family="sans-serif" font-size="12" lengthAdjust="spacing" textLength="16" x="103.5" y="154.0762">Git</text><line style="stroke:#181818;stroke-width:1.5;" x1="83.5" x2="93.5" y1="198.8906" y2="198.8906"/><rect fill="#F1F1F1" height="33.9688" style="stroke:#181818;stroke-width:1.5;" width="60" x="93.5" y="181.9063"/><text fill="#000000" font-family="sans-serif" font-size="12" lengthAdjust="spacing" textLength="40" x="103.5" y="203.0449">GitHub</text><line style="stroke:#181818;stroke-width:1.5;" x1="83.5" x2="83.5" y1="117.9375" y2="198.8906"/><line style="stroke:#181818;stroke-width:1.5;" x1="238" x2="238" y1="63.9688" y2="83.9688"/><rect fill="#F1F1F1" height="33.9688" style="stroke:#181818;stroke-width:1.5;" width="122" x="177" y="83.9688"/><text fill="#000000" font-family="sans-serif" font-size="12" lengthAdjust="spacing" textLength="102" x="187" y="105.1074">Pruebas unitarias</text><line style="stroke:#181818;stroke-width:1.5;" x1="238" x2="248" y1="149.9219" y2="149.9219"/><rect fill="#F1F1F1" height="33.9688" style="stroke:#181818;stroke-width:1.5;" width="43" x="248" y="132.9375"/><text fill="#000000" font-family="sans-serif" font-size="12" lengthAdjust="spacing" textLength="23" x="258" y="154.0762">Jest</text><line style="stroke:#181818;stroke-width:1.5;" x1="238" x2="238" y1="117.9375" y2="149.9219"/><line style="stroke:#181818;stroke-width:1.5;" x1="359" x2="359" y1="63.9688" y2="83.9688"/><rect fill="#F1F1F1" height="33.9688" style="stroke:#181818;stroke-width:1.5;" width="80" x="319" y="83.9688"/><text fill="#000000" font-family="sans-serif" font-size="12" lengthAdjust="spacing" textLength="60" x="329" y="105.1074">Modelado</text><line style="stroke:#181818;stroke-width:1.5;" x1="359" x2="369" y1="149.9219" y2="149.9219"/><rect fill="#F1F1F1" height="33.9688" style="stroke:#181818;stroke-width:1.5;" width="233" x="369" y="132.9375"/><text fill="#000000" font-family="sans-serif" font-size="12" lengthAdjust="spacing" textLength="213" x="379" y="154.0762">MermaidJS (por defecto en notion).</text><line style="stroke:#181818;stroke-width:1.5;" x1="359" x2="369" y1="198.8906" y2="198.8906"/><rect fill="#F1F1F1" height="33.9688" style="stroke:#181818;stroke-width:1.5;" width="410" x="369" y="181.9063"/><text fill="#000000" font-family="sans-serif" font-size="12" lengthAdjust="spacing" textLength="390" x="379" y="203.0449">PlantUML (cuando MermaidJS no permita modelar, usamos este).</text><line style="stroke:#181818;stroke-width:1.5;" x1="359" x2="359" y1="117.9375" y2="198.8906"/><line style="stroke:#181818;stroke-width:1.5;" x1="875.5" x2="875.5" y1="63.9688" y2="83.9688"/><rect fill="#F1F1F1" height="33.9688" style="stroke:#181818;stroke-width:1.5;" width="153" x="799" y="83.9688"/><text fill="#000000" font-family="sans-serif" font-size="12" lengthAdjust="spacing" textLength="133" x="809" y="105.1074">Capa de presentación</text><line style="stroke:#181818;stroke-width:1.5;" x1="875.5" x2="885.5" y1="149.9219" y2="149.9219"/><rect fill="#F1F1F1" height="33.9688" style="stroke:#181818;stroke-width:1.5;" width="80" x="885.5" y="132.9375"/><text fill="#000000" font-family="sans-serif" font-size="12" lengthAdjust="spacing" textLength="60" x="895.5" y="154.0762">JavaScript</text><line style="stroke:#181818;stroke-width:1.5;" x1="925.5" x2="935.5" y1="198.8906" y2="198.8906"/><rect fill="#F1F1F1" height="33.9688" style="stroke:#181818;stroke-width:1.5;" width="53" x="935.5" y="181.9063"/><text fill="#000000" font-family="sans-serif" font-size="12" lengthAdjust="spacing" textLength="33" x="945.5" y="203.0449">React</text><line style="stroke:#181818;stroke-width:1.5;" x1="925.5" x2="925.5" y1="166.9063" y2="198.8906"/><line style="stroke:#181818;stroke-width:1.5;" x1="875.5" x2="875.5" y1="117.9375" y2="149.9219"/><line style="stroke:#181818;stroke-width:1.5;" x1="1096" x2="1096" y1="63.9688" y2="83.9688"/><rect fill="#F1F1F1" height="33.9688" style="stroke:#181818;stroke-width:1.5;" width="175" x="1008.5" y="83.9688"/><text fill="#000000" font-family="sans-serif" font-size="12" lengthAdjust="spacing" textLength="155" x="1018.5" y="105.1074">Capa de negocio/dominio</text><line style="stroke:#181818;stroke-width:1.5;" x1="1096" x2="1106" y1="149.9219" y2="149.9219"/><rect fill="#F1F1F1" height="33.9688" style="stroke:#181818;stroke-width:1.5;" width="149" x="1106" y="132.9375"/><text fill="#000000" font-family="sans-serif" font-size="12" lengthAdjust="spacing" textLength="129" x="1116" y="154.0762">Tipo y características</text><line style="stroke:#181818;stroke-width:1.5;" x1="1180.5" x2="1190.5" y1="198.8906" y2="198.8906"/><rect fill="#F1F1F1" height="33.9688" style="stroke:#181818;stroke-width:1.5;" width="99" x="1190.5" y="181.9063"/><text fill="#000000" font-family="sans-serif" font-size="12" lengthAdjust="spacing" textLength="79" x="1200.5" y="203.0449">Servicio web</text><line style="stroke:#181818;stroke-width:1.5;" x1="1180.5" x2="1190.5" y1="247.8594" y2="247.8594"/><rect fill="#F1F1F1" height="33.9688" style="stroke:#181818;stroke-width:1.5;" width="50" x="1190.5" y="230.875"/><text fill="#000000" font-family="sans-serif" font-size="12" lengthAdjust="spacing" textLength="30" x="1200.5" y="252.0137">JSON</text><line style="stroke:#181818;stroke-width:1.5;" x1="1180.5" x2="1190.5" y1="296.8281" y2="296.8281"/><rect fill="#F1F1F1" height="33.9688" style="stroke:#181818;stroke-width:1.5;" width="70" x="1190.5" y="279.8438"/><text fill="#000000" font-family="sans-serif" font-size="12" lengthAdjust="spacing" textLength="50" x="1200.5" y="300.9824">API REST</text><line style="stroke:#181818;stroke-width:1.5;" x1="1180.5" x2="1180.5" y1="166.9063" y2="296.8281"/><line style="stroke:#181818;stroke-width:1.5;" x1="1096" x2="1106" y1="345.7969" y2="345.7969"/><rect fill="#F1F1F1" height="33.9688" style="stroke:#181818;stroke-width:1.5;" width="234" x="1106" y="328.8125"/><text fill="#000000" font-family="sans-serif" font-size="12" lengthAdjust="spacing" textLength="214" x="1116" y="349.9512">Pruebas manuales del servicio web</text><line style="stroke:#181818;stroke-width:1.5;" x1="1223" x2="1233" y1="394.7656" y2="394.7656"/><rect fill="#F1F1F1" height="33.9688" style="stroke:#181818;stroke-width:1.5;" width="70" x="1233" y="377.7813"/><text fill="#000000" font-family="sans-serif" font-size="12" lengthAdjust="spacing" textLength="50" x="1243" y="398.9199">Postman</text><line style="stroke:#181818;stroke-width:1.5;" x1="1223" x2="1223" y1="362.7813" y2="394.7656"/><line style="stroke:#181818;stroke-width:1.5;" x1="1096" x2="1106" y1="443.7344" y2="443.7344"/><rect fill="#F1F1F1" height="33.9688" style="stroke:#181818;stroke-width:1.5;" width="93" x="1106" y="426.75"/><text fill="#000000" font-family="sans-serif" font-size="12" lengthAdjust="spacing" textLength="73" x="1116" y="447.8887">Tecnologías</text><line style="stroke:#181818;stroke-width:1.5;" x1="1152.5" x2="1162.5" y1="492.7031" y2="492.7031"/><rect fill="#F1F1F1" height="33.9688" style="stroke:#181818;stroke-width:1.5;" width="197" x="1162.5" y="475.7188"/><text fill="#000000" font-family="sans-serif" font-size="12" lengthAdjust="spacing" textLength="177" x="1172.5" y="496.8574">JavaScript,TypeScript,NodeJS</text><line style="stroke:#181818;stroke-width:1.5;" x1="1261" x2="1271" y1="541.6719" y2="541.6719"/><rect fill="#F1F1F1" height="33.9688" style="stroke:#181818;stroke-width:1.5;" width="69" x="1271" y="524.6875"/><text fill="#000000" font-family="sans-serif" font-size="12" lengthAdjust="spacing" textLength="49" x="1281" y="545.8262">Express</text><line style="stroke:#181818;stroke-width:1.5;" x1="1261" x2="1271" y1="590.6406" y2="590.6406"/><rect fill="#F1F1F1" height="33.9688" style="stroke:#181818;stroke-width:1.5;" width="84" x="1271" y="573.6563"/><text fill="#000000" font-family="sans-serif" font-size="12" lengthAdjust="spacing" textLength="64" x="1281" y="594.7949">Moongose</text><line style="stroke:#181818;stroke-width:1.5;" x1="1261" x2="1261" y1="509.6875" y2="590.6406"/><line style="stroke:#181818;stroke-width:1.5;" x1="1152.5" x2="1152.5" y1="460.7188" y2="492.7031"/><line style="stroke:#181818;stroke-width:1.5;" x1="1096" x2="1096" y1="117.9375" y2="443.7344"/><line style="stroke:#181818;stroke-width:1.5;" x1="1433.5" x2="1433.5" y1="63.9688" y2="83.9688"/><rect fill="#F1F1F1" height="33.9688" style="stroke:#181818;stroke-width:1.5;" width="108" x="1379.5" y="83.9688"/><text fill="#000000" font-family="sans-serif" font-size="12" lengthAdjust="spacing" textLength="88" x="1389.5" y="105.1074">Capa de datos</text><line style="stroke:#181818;stroke-width:1.5;" x1="1433.5" x2="1443.5" y1="149.9219" y2="149.9219"/><rect fill="#F1F1F1" height="33.9688" style="stroke:#181818;stroke-width:1.5;" width="86" x="1443.5" y="132.9375"/><text fill="#000000" font-family="sans-serif" font-size="12" lengthAdjust="spacing" textLength="66" x="1453.5" y="154.0762">Excel (.xlx)</text><line style="stroke:#181818;stroke-width:1.5;" x1="1433.5" x2="1443.5" y1="198.8906" y2="198.8906"/><rect fill="#F1F1F1" height="33.9688" style="stroke:#181818;stroke-width:1.5;" width="78" x="1443.5" y="181.9063"/><text fill="#000000" font-family="sans-serif" font-size="12" lengthAdjust="spacing" textLength="58" x="1453.5" y="203.0449">MongoDB</text><line style="stroke:#181818;stroke-width:1.5;" x1="1433.5" x2="1443.5" y1="247.8594" y2="247.8594"/><rect fill="#F1F1F1" height="33.9688" style="stroke:#181818;stroke-width:1.5;" width="95" x="1443.5" y="230.875"/><text fill="#000000" font-family="sans-serif" font-size="12" lengthAdjust="spacing" textLength="75" x="1453.5" y="252.0137">API Cimarrón</text><line style="stroke:#181818;stroke-width:1.5;" x1="1433.5" x2="1433.5" y1="117.9375" y2="247.8594"/><line style="stroke:#181818;stroke-width:1.5;" x1="1615" x2="1615" y1="63.9688" y2="83.9688"/><rect fill="#F1F1F1" height="33.9688" style="stroke:#181818;stroke-width:1.5;" width="113" x="1558.5" y="83.9688"/><text fill="#000000" font-family="sans-serif" font-size="12" lengthAdjust="spacing" textLength="93" x="1568.5" y="105.1074">Documentación</text><line style="stroke:#181818;stroke-width:1.5;" x1="1615" x2="1625" y1="149.9219" y2="149.9219"/><rect fill="#F1F1F1" height="33.9688" style="stroke:#181818;stroke-width:1.5;" width="139" x="1625" y="132.9375"/><text fill="#000000" font-family="sans-serif" font-size="12" lengthAdjust="spacing" textLength="119" x="1635" y="154.0762">Referente a gestión</text><line style="stroke:#181818;stroke-width:1.5;" x1="1694.5" x2="1704.5" y1="198.8906" y2="198.8906"/><rect fill="#F1F1F1" height="33.9688" style="stroke:#181818;stroke-width:1.5;" width="58" x="1704.5" y="181.9063"/><text fill="#000000" font-family="sans-serif" font-size="12" lengthAdjust="spacing" textLength="38" x="1714.5" y="203.0449">Notion</text><line style="stroke:#181818;stroke-width:1.5;" x1="1694.5" x2="1694.5" y1="166.9063" y2="198.8906"/><line style="stroke:#181818;stroke-width:1.5;" x1="1615" x2="1625" y1="247.8594" y2="247.8594"/><rect fill="#F1F1F1" height="33.9688" style="stroke:#181818;stroke-width:1.5;" width="159" x="1625" y="230.875"/><text fill="#000000" font-family="sans-serif" font-size="12" lengthAdjust="spacing" textLength="139" x="1635" y="252.0137">Referente al desarrollo</text><line style="stroke:#181818;stroke-width:1.5;" x1="1704.5" x2="1714.5" y1="296.8281" y2="296.8281"/><rect fill="#F1F1F1" height="33.9688" style="stroke:#181818;stroke-width:1.5;" width="130" x="1714.5" y="279.8438"/><text fill="#000000" font-family="sans-serif" font-size="12" lengthAdjust="spacing" textLength="110" x="1724.5" y="300.9824">GitHub, Markdown</text><line style="stroke:#181818;stroke-width:1.5;" x1="1704.5" x2="1704.5" y1="264.8438" y2="296.8281"/><line style="stroke:#181818;stroke-width:1.5;" x1="1615" x2="1615" y1="117.9375" y2="247.8594"/><line style="stroke:#181818;stroke-width:1.5;" x1="1935.5" x2="1935.5" y1="63.9688" y2="83.9688"/><rect fill="#F1F1F1" height="33.9688" style="stroke:#181818;stroke-width:1.5;" width="142" x="1864.5" y="83.9688"/><text fill="#000000" font-family="sans-serif" font-size="12" lengthAdjust="spacing" textLength="122" x="1874.5" y="105.1074">Vista de Despliegue</text><line style="stroke:#181818;stroke-width:1.5;" x1="1935.5" x2="1945.5" y1="149.9219" y2="149.9219"/><rect fill="#F1F1F1" height="33.9688" style="stroke:#181818;stroke-width:1.5;" width="214" x="1945.5" y="132.9375"/><text fill="#000000" font-family="sans-serif" font-size="12" lengthAdjust="spacing" textLength="194" x="1955.5" y="154.0762">Continua integracion/despliegue</text><line style="stroke:#181818;stroke-width:1.5;" x1="2052.5" x2="2062.5" y1="198.8906" y2="198.8906"/><rect fill="#F1F1F1" height="33.9688" style="stroke:#181818;stroke-width:1.5;" width="101" x="2062.5" y="181.9063"/><text fill="#000000" font-family="sans-serif" font-size="12" lengthAdjust="spacing" textLength="81" x="2072.5" y="203.0449">GitHub Action</text><line style="stroke:#181818;stroke-width:1.5;" x1="2052.5" x2="2052.5" y1="166.9063" y2="198.8906"/><line style="stroke:#181818;stroke-width:1.5;" x1="1935.5" x2="1945.5" y1="247.8594" y2="247.8594"/><rect fill="#F1F1F1" height="33.9688" style="stroke:#181818;stroke-width:1.5;" width="164" x="1945.5" y="230.875"/><text fill="#000000" font-family="sans-serif" font-size="12" lengthAdjust="spacing" textLength="144" x="1955.5" y="252.0137">Servidor de producción</text><line style="stroke:#181818;stroke-width:1.5;" x1="2027.5" x2="2037.5" y1="296.8281" y2="296.8281"/><rect fill="#F1F1F1" height="33.9688" style="stroke:#181818;stroke-width:1.5;" width="74" x="2037.5" y="279.8438"/><text fill="#000000" font-family="sans-serif" font-size="12" lengthAdjust="spacing" textLength="54" x="2047.5" y="300.9824">Mexicali?</text><line style="stroke:#181818;stroke-width:1.5;" x1="2027.5" x2="2027.5" y1="264.8438" y2="296.8281"/><line style="stroke:#181818;stroke-width:1.5;" x1="1935.5" x2="1945.5" y1="345.7969" y2="345.7969"/><rect fill="#F1F1F1" height="33.9688" style="stroke:#181818;stroke-width:1.5;" width="196" x="1945.5" y="328.8125"/><text fill="#000000" font-family="sans-serif" font-size="12" lengthAdjust="spacing" textLength="176" x="1955.5" y="349.9512">Desarrollo de preproducción</text><line style="stroke:#181818;stroke-width:1.5;" x1="2043.5" x2="2053.5" y1="394.7656" y2="394.7656"/><rect fill="#F1F1F1" height="33.9688" style="stroke:#181818;stroke-width:1.5;" width="334" x="2053.5" y="377.7813"/><text fill="#000000" font-family="sans-serif" font-size="12" lengthAdjust="spacing" textLength="314" x="2063.5" y="398.9199">Computadora proporcionada por la profesora Judith</text><line style="stroke:#181818;stroke-width:1.5;" x1="2043.5" x2="2043.5" y1="362.7813" y2="394.7656"/><line style="stroke:#181818;stroke-width:1.5;" x1="1935.5" x2="1935.5" y1="117.9375" y2="345.7969"/><line style="stroke:#181818;stroke-width:1.5;" x1="83.5" x2="1935.5" y1="63.9688" y2="63.9688"/><rect fill="#F1F1F1" height="33.9688" style="stroke:#181818;stroke-width:1.5;" width="89" x="965" y="10"/><text fill="#000000" font-family="sans-serif" font-size="12" lengthAdjust="spacing" textLength="69" x="975" y="31.1387">Ecosistema</text><line style="stroke:#181818;stroke-width:1.5;" x1="1009.5" x2="1009.5" y1="43.9688" y2="63.9688"/><!--MD5=[807dd8e8df081a6b5a3bc1de529e3f2d]
@startwbs
* Ecosistema
** Control de versiones
*** Git
*** GitHub
** Pruebas unitarias
*** Jest
** Modelado
*** MermaidJS (por defecto en notion).
*** PlantUML (cuando MermaidJS no permita modelar, usamos este).
** Capa de presentación
*** JavaScript
**** React
** Capa de negocio/dominio
*** Tipo y características
**** Servicio web
**** JSON
**** API REST
*** Pruebas manuales del servicio web
**** Postman
*** Tecnologías
**** JavaScript,TypeScript,NodeJS
***** Express
***** Moongose
** Capa de datos
*** Excel (.xlx)
*** MongoDB
*** API Cimarrón
** Documentación
*** Referente a gestión
**** Notion
*** Referente al desarrollo
**** GitHub, Markdown
** Vista de Despliegue
*** Continua integracion/despliegue
**** GitHub Action
*** Servidor de producción
**** Mexicali?
*** Desarrollo de preproducción
**** Computadora proporcionada por la profesora Judith
@endwbs

PlantUML version 1.2022.8beta8(Unknown compile time)
(GPL source distribution)
Java Runtime: Java(TM) SE Runtime Environment
JVM: Java HotSpot(TM) 64-Bit Server VM
Default Encoding: UTF-8
Language: en
Country: US
--></g></svg>