<?xml version="1.0" encoding="UTF-8" standalone="no"?><svg xmlns="http://www.w3.org/2000/svg" xmlns:xlink="http://www.w3.org/1999/xlink" contentStyleType="text/css" height="422px" preserveAspectRatio="none" style="width:2754px;height:422px;background:#FFFFFF;" version="1.1" viewBox="0 0 2754 422" width="2754px" zoomAndPan="magnify"><defs/><g><line style="stroke:#181818;stroke-width:1.5;" x1="83.5" x2="83.5" y1="63.9688" y2="83.9688"/><rect fill="#F1F1F1" height="33.9688" style="stroke:#181818;stroke-width:1.5;" width="147" x="10" y="83.9688"/><text fill="#000000" font-family="sans-serif" font-size="12" lengthAdjust="spacing" textLength="127" x="20" y="105.1074">Control de versiones</text><line style="stroke:#181818;stroke-width:1.5;" x1="83.5" x2="93.5" y1="149.9219" y2="149.9219"/><rect fill="#F1F1F1" height="33.9688" style="stroke:#181818;stroke-width:1.5;" width="36" x="93.5" y="132.9375"/><text fill="#000000" font-family="sans-serif" font-size="12" lengthAdjust="spacing" textLength="16" x="103.5" y="154.0762">Git</text><line style="stroke:#181818;stroke-width:1.5;" x1="83.5" x2="93.5" y1="198.8906" y2="198.8906"/><rect fill="#F1F1F1" height="33.9688" style="stroke:#181818;stroke-width:1.5;" width="60" x="93.5" y="181.9063"/><text fill="#000000" font-family="sans-serif" font-size="12" lengthAdjust="spacing" textLength="40" x="103.5" y="203.0449">GitHub</text><line style="stroke:#181818;stroke-width:1.5;" x1="83.5" x2="83.5" y1="117.9375" y2="198.8906"/><line style="stroke:#181818;stroke-width:1.5;" x1="211" x2="211" y1="63.9688" y2="83.9688"/><rect fill="#F1F1F1" height="33.9688" style="stroke:#181818;stroke-width:1.5;" width="68" x="177" y="83.9688"/><text fill="#000000" font-family="sans-serif" font-size="12" lengthAdjust="spacing" textLength="48" x="187" y="105.1074">Pruebas</text><line style="stroke:#181818;stroke-width:1.5;" x1="211" x2="221" y1="149.9219" y2="149.9219"/><rect fill="#F1F1F1" height="33.9688" style="stroke:#181818;stroke-width:1.5;" width="122" x="221" y="132.9375"/><text fill="#000000" font-family="sans-serif" font-size="12" lengthAdjust="spacing" textLength="102" x="231" y="154.0762">Pruebas unitarias</text><line style="stroke:#181818;stroke-width:1.5;" x1="282" x2="292" y1="198.8906" y2="198.8906"/><rect fill="#F1F1F1" height="33.9688" style="stroke:#181818;stroke-width:1.5;" width="43" x="292" y="181.9063"/><text fill="#000000" font-family="sans-serif" font-size="12" lengthAdjust="spacing" textLength="23" x="302" y="203.0449">Jest</text><line style="stroke:#181818;stroke-width:1.5;" x1="282" x2="282" y1="166.9063" y2="198.8906"/><line style="stroke:#181818;stroke-width:1.5;" x1="211" x2="221" y1="247.8594" y2="247.8594"/><rect fill="#F1F1F1" height="33.9688" style="stroke:#181818;stroke-width:1.5;" width="159" x="221" y="230.875"/><text fill="#000000" font-family="sans-serif" font-size="12" lengthAdjust="spacing" textLength="139" x="231" y="252.0137">Pruebas de integración</text><line style="stroke:#181818;stroke-width:1.5;" x1="300.5" x2="310.5" y1="296.8281" y2="296.8281"/><rect fill="#F1F1F1" height="33.9688" style="stroke:#181818;stroke-width:1.5;" width="75" x="310.5" y="279.8438"/><text fill="#000000" font-family="sans-serif" font-size="12" lengthAdjust="spacing" textLength="55" x="320.5" y="300.9824">Selenium</text><line style="stroke:#181818;stroke-width:1.5;" x1="300.5" x2="300.5" y1="264.8438" y2="296.8281"/><line style="stroke:#181818;stroke-width:1.5;" x1="211" x2="211" y1="117.9375" y2="247.8594"/><line style="stroke:#181818;stroke-width:1.5;" x1="445.5" x2="445.5" y1="63.9688" y2="83.9688"/><rect fill="#F1F1F1" height="33.9688" style="stroke:#181818;stroke-width:1.5;" width="80" x="405.5" y="83.9688"/><text fill="#000000" font-family="sans-serif" font-size="12" lengthAdjust="spacing" textLength="60" x="415.5" y="105.1074">Modelado</text><line style="stroke:#181818;stroke-width:1.5;" x1="445.5" x2="455.5" y1="149.9219" y2="149.9219"/><rect fill="#F1F1F1" height="33.9688" style="stroke:#181818;stroke-width:1.5;" width="233" x="455.5" y="132.9375"/><text fill="#000000" font-family="sans-serif" font-size="12" lengthAdjust="spacing" textLength="213" x="465.5" y="154.0762">MermaidJS (por defecto en notion).</text><line style="stroke:#181818;stroke-width:1.5;" x1="445.5" x2="455.5" y1="198.8906" y2="198.8906"/><rect fill="#F1F1F1" height="33.9688" style="stroke:#181818;stroke-width:1.5;" width="410" x="455.5" y="181.9063"/><text fill="#000000" font-family="sans-serif" font-size="12" lengthAdjust="spacing" textLength="390" x="465.5" y="203.0449">PlantUML (cuando MermaidJS no permita modelar, usamos este).</text><line style="stroke:#181818;stroke-width:1.5;" x1="445.5" x2="445.5" y1="117.9375" y2="198.8906"/><line style="stroke:#181818;stroke-width:1.5;" x1="962" x2="962" y1="63.9688" y2="83.9688"/><rect fill="#F1F1F1" height="33.9688" style="stroke:#181818;stroke-width:1.5;" width="153" x="885.5" y="83.9688"/><text fill="#000000" font-family="sans-serif" font-size="12" lengthAdjust="spacing" textLength="133" x="895.5" y="105.1074">Capa de presentación</text><line style="stroke:#181818;stroke-width:1.5;" x1="962" x2="972" y1="149.9219" y2="149.9219"/><rect fill="#F1F1F1" height="33.9688" style="stroke:#181818;stroke-width:1.5;" width="80" x="972" y="132.9375"/><text fill="#000000" font-family="sans-serif" font-size="12" lengthAdjust="spacing" textLength="60" x="982" y="154.0762">JavaScript</text><line style="stroke:#181818;stroke-width:1.5;" x1="1012" x2="1022" y1="198.8906" y2="198.8906"/><rect fill="#F1F1F1" height="33.9688" style="stroke:#181818;stroke-width:1.5;" width="53" x="1022" y="181.9063"/><text fill="#000000" font-family="sans-serif" font-size="12" lengthAdjust="spacing" textLength="33" x="1032" y="203.0449">React</text><line style="stroke:#181818;stroke-width:1.5;" x1="1012" x2="1012" y1="166.9063" y2="198.8906"/><line style="stroke:#181818;stroke-width:1.5;" x1="962" x2="962" y1="117.9375" y2="149.9219"/><line style="stroke:#181818;stroke-width:1.5;" x1="1188" x2="1188" y1="63.9688" y2="83.9688"/><rect fill="#F1F1F1" height="33.9688" style="stroke:#181818;stroke-width:1.5;" width="186" x="1095" y="83.9688"/><text fill="#000000" font-family="sans-serif" font-size="12" lengthAdjust="spacing" textLength="166" x="1105" y="105.1074">Interfaces de comunicación</text><line style="stroke:#181818;stroke-width:1.5;" x1="1188" x2="1198" y1="149.9219" y2="149.9219"/><rect fill="#F1F1F1" height="33.9688" style="stroke:#181818;stroke-width:1.5;" width="99" x="1198" y="132.9375"/><text fill="#000000" font-family="sans-serif" font-size="12" lengthAdjust="spacing" textLength="79" x="1208" y="154.0762">Servicio web</text><line style="stroke:#181818;stroke-width:1.5;" x1="1188" x2="1198" y1="198.8906" y2="198.8906"/><rect fill="#F1F1F1" height="33.9688" style="stroke:#181818;stroke-width:1.5;" width="50" x="1198" y="181.9063"/><text fill="#000000" font-family="sans-serif" font-size="12" lengthAdjust="spacing" textLength="30" x="1208" y="203.0449">JSON</text><line style="stroke:#181818;stroke-width:1.5;" x1="1188" x2="1198" y1="247.8594" y2="247.8594"/><rect fill="#F1F1F1" height="33.9688" style="stroke:#181818;stroke-width:1.5;" width="70" x="1198" y="230.875"/><text fill="#000000" font-family="sans-serif" font-size="12" lengthAdjust="spacing" textLength="50" x="1208" y="252.0137">API REST</text><line style="stroke:#181818;stroke-width:1.5;" x1="1188" x2="1198" y1="296.8281" y2="296.8281"/><rect fill="#F1F1F1" height="33.9688" style="stroke:#181818;stroke-width:1.5;" width="129" x="1198" y="279.8438"/><text fill="#000000" font-family="sans-serif" font-size="12" lengthAdjust="spacing" textLength="109" x="1208" y="300.9824">Pruebas manuales</text><line style="stroke:#181818;stroke-width:1.5;" x1="1262.5" x2="1272.5" y1="345.7969" y2="345.7969"/><rect fill="#F1F1F1" height="33.9688" style="stroke:#181818;stroke-width:1.5;" width="70" x="1272.5" y="328.8125"/><text fill="#000000" font-family="sans-serif" font-size="12" lengthAdjust="spacing" textLength="50" x="1282.5" y="349.9512">Postman</text><line style="stroke:#181818;stroke-width:1.5;" x1="1262.5" x2="1262.5" y1="313.8125" y2="345.7969"/><line style="stroke:#181818;stroke-width:1.5;" x1="1188" x2="1188" y1="117.9375" y2="296.8281"/><line style="stroke:#181818;stroke-width:1.5;" x1="1452" x2="1452" y1="63.9688" y2="83.9688"/><rect fill="#F1F1F1" height="33.9688" style="stroke:#181818;stroke-width:1.5;" width="179" x="1362.5" y="83.9688"/><text fill="#000000" font-family="sans-serif" font-size="12" lengthAdjust="spacing" textLength="155" x="1372.5" y="105.1074">Capa de negocio/dominio</text><line style="stroke:#181818;stroke-width:1.5;" x1="1452" x2="1462" y1="149.9219" y2="149.9219"/><rect fill="#F1F1F1" height="33.9688" style="stroke:#181818;stroke-width:1.5;" width="93" x="1462" y="132.9375"/><text fill="#000000" font-family="sans-serif" font-size="12" lengthAdjust="spacing" textLength="73" x="1472" y="154.0762">Tecnologías</text><line style="stroke:#181818;stroke-width:1.5;" x1="1508.5" x2="1518.5" y1="198.8906" y2="198.8906"/><rect fill="#F1F1F1" height="33.9688" style="stroke:#181818;stroke-width:1.5;" width="197" x="1518.5" y="181.9063"/><text fill="#000000" font-family="sans-serif" font-size="12" lengthAdjust="spacing" textLength="177" x="1528.5" y="203.0449">JavaScript,TypeScript,NodeJS</text><line style="stroke:#181818;stroke-width:1.5;" x1="1617" x2="1627" y1="247.8594" y2="247.8594"/><rect fill="#F1F1F1" height="33.9688" style="stroke:#181818;stroke-width:1.5;" width="69" x="1627" y="230.875"/><text fill="#000000" font-family="sans-serif" font-size="12" lengthAdjust="spacing" textLength="49" x="1637" y="252.0137">Express</text><line style="stroke:#181818;stroke-width:1.5;" x1="1617" x2="1627" y1="296.8281" y2="296.8281"/><rect fill="#F1F1F1" height="33.9688" style="stroke:#181818;stroke-width:1.5;" width="84" x="1627" y="279.8438"/><text fill="#000000" font-family="sans-serif" font-size="12" lengthAdjust="spacing" textLength="64" x="1637" y="300.9824">Moongose</text><line style="stroke:#181818;stroke-width:1.5;" x1="1617" x2="1617" y1="215.875" y2="296.8281"/><line style="stroke:#181818;stroke-width:1.5;" x1="1508.5" x2="1508.5" y1="166.9063" y2="198.8906"/><line style="stroke:#181818;stroke-width:1.5;" x1="1452" x2="1452" y1="117.9375" y2="149.9219"/><line style="stroke:#181818;stroke-width:1.5;" x1="1789.5" x2="1789.5" y1="63.9688" y2="83.9688"/><rect fill="#F1F1F1" height="33.9688" style="stroke:#181818;stroke-width:1.5;" width="108" x="1735.5" y="83.9688"/><text fill="#000000" font-family="sans-serif" font-size="12" lengthAdjust="spacing" textLength="88" x="1745.5" y="105.1074">Capa de datos</text><line style="stroke:#181818;stroke-width:1.5;" x1="1789.5" x2="1799.5" y1="149.9219" y2="149.9219"/><rect fill="#F1F1F1" height="33.9688" style="stroke:#181818;stroke-width:1.5;" width="86" x="1799.5" y="132.9375"/><text fill="#000000" font-family="sans-serif" font-size="12" lengthAdjust="spacing" textLength="66" x="1809.5" y="154.0762">Excel (.xlx)</text><line style="stroke:#181818;stroke-width:1.5;" x1="1789.5" x2="1799.5" y1="198.8906" y2="198.8906"/><rect fill="#F1F1F1" height="33.9688" style="stroke:#181818;stroke-width:1.5;" width="78" x="1799.5" y="181.9063"/><text fill="#000000" font-family="sans-serif" font-size="12" lengthAdjust="spacing" textLength="58" x="1809.5" y="203.0449">MongoDB</text><line style="stroke:#181818;stroke-width:1.5;" x1="1789.5" x2="1799.5" y1="247.8594" y2="247.8594"/><rect fill="#F1F1F1" height="33.9688" style="stroke:#181818;stroke-width:1.5;" width="95" x="1799.5" y="230.875"/><text fill="#000000" font-family="sans-serif" font-size="12" lengthAdjust="spacing" textLength="75" x="1809.5" y="252.0137">API Cimarrón</text><line style="stroke:#181818;stroke-width:1.5;" x1="1789.5" x2="1789.5" y1="117.9375" y2="247.8594"/><line style="stroke:#181818;stroke-width:1.5;" x1="1971" x2="1971" y1="63.9688" y2="83.9688"/><rect fill="#F1F1F1" height="33.9688" style="stroke:#181818;stroke-width:1.5;" width="113" x="1914.5" y="83.9688"/><text fill="#000000" font-family="sans-serif" font-size="12" lengthAdjust="spacing" textLength="93" x="1924.5" y="105.1074">Documentación</text><line style="stroke:#181818;stroke-width:1.5;" x1="1971" x2="1981" y1="149.9219" y2="149.9219"/><rect fill="#F1F1F1" height="33.9688" style="stroke:#181818;stroke-width:1.5;" width="139" x="1981" y="132.9375"/><text fill="#000000" font-family="sans-serif" font-size="12" lengthAdjust="spacing" textLength="119" x="1991" y="154.0762">Referente a gestión</text><line style="stroke:#181818;stroke-width:1.5;" x1="2050.5" x2="2060.5" y1="198.8906" y2="198.8906"/><rect fill="#F1F1F1" height="33.9688" style="stroke:#181818;stroke-width:1.5;" width="58" x="2060.5" y="181.9063"/><text fill="#000000" font-family="sans-serif" font-size="12" lengthAdjust="spacing" textLength="38" x="2070.5" y="203.0449">Notion</text><line style="stroke:#181818;stroke-width:1.5;" x1="2050.5" x2="2050.5" y1="166.9063" y2="198.8906"/><line style="stroke:#181818;stroke-width:1.5;" x1="1971" x2="1981" y1="247.8594" y2="247.8594"/><rect fill="#F1F1F1" height="33.9688" style="stroke:#181818;stroke-width:1.5;" width="159" x="1981" y="230.875"/><text fill="#000000" font-family="sans-serif" font-size="12" lengthAdjust="spacing" textLength="139" x="1991" y="252.0137">Referente al desarrollo</text><line style="stroke:#181818;stroke-width:1.5;" x1="2060.5" x2="2070.5" y1="296.8281" y2="296.8281"/><rect fill="#F1F1F1" height="33.9688" style="stroke:#181818;stroke-width:1.5;" width="130" x="2070.5" y="279.8438"/><text fill="#000000" font-family="sans-serif" font-size="12" lengthAdjust="spacing" textLength="110" x="2080.5" y="300.9824">GitHub, Markdown</text><line style="stroke:#181818;stroke-width:1.5;" x1="2060.5" x2="2060.5" y1="264.8438" y2="296.8281"/><line style="stroke:#181818;stroke-width:1.5;" x1="1971" x2="1971" y1="117.9375" y2="247.8594"/><line style="stroke:#181818;stroke-width:1.5;" x1="2291.5" x2="2291.5" y1="63.9688" y2="83.9688"/><rect fill="#F1F1F1" height="33.9688" style="stroke:#181818;stroke-width:1.5;" width="142" x="2220.5" y="83.9688"/><text fill="#000000" font-family="sans-serif" font-size="12" lengthAdjust="spacing" textLength="122" x="2230.5" y="105.1074">Vista de Despliegue</text><line style="stroke:#181818;stroke-width:1.5;" x1="2291.5" x2="2301.5" y1="149.9219" y2="149.9219"/><rect fill="#F1F1F1" height="33.9688" style="stroke:#181818;stroke-width:1.5;" width="214" x="2301.5" y="132.9375"/><text fill="#000000" font-family="sans-serif" font-size="12" lengthAdjust="spacing" textLength="194" x="2311.5" y="154.0762">Continua integracion/despliegue</text><line style="stroke:#181818;stroke-width:1.5;" x1="2408.5" x2="2418.5" y1="198.8906" y2="198.8906"/><rect fill="#F1F1F1" height="33.9688" style="stroke:#181818;stroke-width:1.5;" width="101" x="2418.5" y="181.9063"/><text fill="#000000" font-family="sans-serif" font-size="12" lengthAdjust="spacing" textLength="81" x="2428.5" y="203.0449">GitHub Action</text><line style="stroke:#181818;stroke-width:1.5;" x1="2408.5" x2="2408.5" y1="166.9063" y2="198.8906"/><line style="stroke:#181818;stroke-width:1.5;" x1="2291.5" x2="2301.5" y1="247.8594" y2="247.8594"/><rect fill="#F1F1F1" height="33.9688" style="stroke:#181818;stroke-width:1.5;" width="164" x="2301.5" y="230.875"/><text fill="#000000" font-family="sans-serif" font-size="12" lengthAdjust="spacing" textLength="144" x="2311.5" y="252.0137">Servidor de producción</text><line style="stroke:#181818;stroke-width:1.5;" x1="2383.5" x2="2393.5" y1="296.8281" y2="296.8281"/><rect fill="#F1F1F1" height="33.9688" style="stroke:#181818;stroke-width:1.5;" width="74" x="2393.5" y="279.8438"/><text fill="#000000" font-family="sans-serif" font-size="12" lengthAdjust="spacing" textLength="54" x="2403.5" y="300.9824">Mexicali?</text><line style="stroke:#181818;stroke-width:1.5;" x1="2383.5" x2="2383.5" y1="264.8438" y2="296.8281"/><line style="stroke:#181818;stroke-width:1.5;" x1="2291.5" x2="2301.5" y1="345.7969" y2="345.7969"/><rect fill="#F1F1F1" height="33.9688" style="stroke:#181818;stroke-width:1.5;" width="196" x="2301.5" y="328.8125"/><text fill="#000000" font-family="sans-serif" font-size="12" lengthAdjust="spacing" textLength="176" x="2311.5" y="349.9512">Desarrollo de preproducción</text><line style="stroke:#181818;stroke-width:1.5;" x1="2399.5" x2="2409.5" y1="394.7656" y2="394.7656"/><rect fill="#F1F1F1" height="33.9688" style="stroke:#181818;stroke-width:1.5;" width="334" x="2409.5" y="377.7813"/><text fill="#000000" font-family="sans-serif" font-size="12" lengthAdjust="spacing" textLength="314" x="2419.5" y="398.9199">Computadora proporcionada por la profesora Judith</text><line style="stroke:#181818;stroke-width:1.5;" x1="2399.5" x2="2399.5" y1="362.7813" y2="394.7656"/><line style="stroke:#181818;stroke-width:1.5;" x1="2291.5" x2="2291.5" y1="117.9375" y2="345.7969"/><line style="stroke:#181818;stroke-width:1.5;" x1="83.5" x2="2291.5" y1="63.9688" y2="63.9688"/><rect fill="#F1F1F1" height="33.9688" style="stroke:#181818;stroke-width:1.5;" width="89" x="1143" y="10"/><text fill="#000000" font-family="sans-serif" font-size="12" lengthAdjust="spacing" textLength="69" x="1153" y="31.1387">Ecosistema</text><line style="stroke:#181818;stroke-width:1.5;" x1="1187.5" x2="1187.5" y1="43.9688" y2="63.9688"/><!--MD5=[181717e879eb608aa57f39bcea71d19f]
@startwbs
* Ecosistema
** Control de versiones
*** Git
*** GitHub
** Pruebas
*** Pruebas unitarias
**** Jest
*** Pruebas de integración
**** Selenium
** Modelado
*** MermaidJS (por defecto en notion).
*** PlantUML (cuando MermaidJS no permita modelar, usamos este).
** Capa de presentación
*** JavaScript
**** React
** Interfaces de comunicación
*** Servicio web
*** JSON
*** API REST
*** Pruebas manuales
**** Postman
** Capa de negocio/dominio 
*** Tecnologías
**** JavaScript,TypeScript,NodeJS
***** Express
***** Moongose
** Capa de datos
*** Excel (.xlx)
*** MongoDB
*** API Cimarrón
** Documentación
*** Referente a gestión
**** Notion
*** Referente al desarrollo
**** GitHub, Markdown
** Vista de Despliegue
*** Continua integracion/despliegue
**** GitHub Action
*** Servidor de producción
**** Mexicali?
*** Desarrollo de preproducción
**** Computadora proporcionada por la profesora Judith
@endwbs

PlantUML version 1.2022.8beta8(Unknown compile time)
(GPL source distribution)
Java Runtime: Java(TM) SE Runtime Environment
JVM: Java HotSpot(TM) 64-Bit Server VM
Default Encoding: UTF-8
Language: en
Country: US
--></g></svg>