<?xml version="1.0" encoding="UTF-8" standalone="no"?><svg xmlns="http://www.w3.org/2000/svg" xmlns:xlink="http://www.w3.org/1999/xlink" contentStyleType="text/css" height="422px" preserveAspectRatio="none" style="width:1829px;height:422px;background:#FFFFFF;" version="1.1" viewBox="0 0 1829 422" width="1829px" zoomAndPan="magnify"><defs/><g><line style="stroke:#181818;stroke-width:1.5;" x1="83.5" x2="83.5" y1="63.9688" y2="83.9688"/><rect fill="#F1F1F1" height="33.9688" style="stroke:#181818;stroke-width:1.5;" width="147" x="10" y="83.9688"/><text fill="#000000" font-family="sans-serif" font-size="12" lengthAdjust="spacing" textLength="127" x="20" y="105.1074">Control de versiones</text><line style="stroke:#181818;stroke-width:1.5;" x1="83.5" x2="93.5" y1="149.9219" y2="149.9219"/><rect fill="#F1F1F1" height="33.9688" style="stroke:#181818;stroke-width:1.5;" width="36" x="93.5" y="132.9375"/><text fill="#000000" font-family="sans-serif" font-size="12" lengthAdjust="spacing" textLength="16" x="103.5" y="154.0762">Git</text><line style="stroke:#181818;stroke-width:1.5;" x1="83.5" x2="93.5" y1="198.8906" y2="198.8906"/><rect fill="#F1F1F1" height="33.9688" style="stroke:#181818;stroke-width:1.5;" width="60" x="93.5" y="181.9063"/><text fill="#000000" font-family="sans-serif" font-size="12" lengthAdjust="spacing" textLength="40" x="103.5" y="203.0449">GitHub</text><line style="stroke:#181818;stroke-width:1.5;" x1="83.5" x2="83.5" y1="117.9375" y2="198.8906"/><line style="stroke:#181818;stroke-width:1.5;" x1="238" x2="238" y1="63.9688" y2="83.9688"/><rect fill="#F1F1F1" height="33.9688" style="stroke:#181818;stroke-width:1.5;" width="122" x="177" y="83.9688"/><text fill="#000000" font-family="sans-serif" font-size="12" lengthAdjust="spacing" textLength="102" x="187" y="105.1074">Pruebas unitarias</text><line style="stroke:#181818;stroke-width:1.5;" x1="238" x2="248" y1="149.9219" y2="149.9219"/><rect fill="#F1F1F1" height="33.9688" style="stroke:#181818;stroke-width:1.5;" width="43" x="248" y="132.9375"/><text fill="#000000" font-family="sans-serif" font-size="12" lengthAdjust="spacing" textLength="23" x="258" y="154.0762">Jest</text><line style="stroke:#181818;stroke-width:1.5;" x1="238" x2="238" y1="117.9375" y2="149.9219"/><line style="stroke:#181818;stroke-width:1.5;" x1="359" x2="359" y1="63.9688" y2="83.9688"/><rect fill="#F1F1F1" height="33.9688" style="stroke:#181818;stroke-width:1.5;" width="80" x="319" y="83.9688"/><text fill="#000000" font-family="sans-serif" font-size="12" lengthAdjust="spacing" textLength="60" x="329" y="105.1074">Modelado</text><line style="stroke:#181818;stroke-width:1.5;" x1="359" x2="369" y1="149.9219" y2="149.9219"/><rect fill="#F1F1F1" height="33.9688" style="stroke:#181818;stroke-width:1.5;" width="72" x="369" y="132.9375"/><text fill="#000000" font-family="sans-serif" font-size="12" lengthAdjust="spacing" textLength="52" x="379" y="154.0762">PlantUML</text><line style="stroke:#181818;stroke-width:1.5;" x1="359" x2="359" y1="117.9375" y2="149.9219"/><line style="stroke:#181818;stroke-width:1.5;" x1="537.5" x2="537.5" y1="63.9688" y2="83.9688"/><rect fill="#F1F1F1" height="33.9688" style="stroke:#181818;stroke-width:1.5;" width="153" x="461" y="83.9688"/><text fill="#000000" font-family="sans-serif" font-size="12" lengthAdjust="spacing" textLength="133" x="471" y="105.1074">Capa de presentación</text><line style="stroke:#181818;stroke-width:1.5;" x1="537.5" x2="547.5" y1="149.9219" y2="149.9219"/><rect fill="#F1F1F1" height="33.9688" style="stroke:#181818;stroke-width:1.5;" width="80" x="547.5" y="132.9375"/><text fill="#000000" font-family="sans-serif" font-size="12" lengthAdjust="spacing" textLength="60" x="557.5" y="154.0762">JavaScript</text><line style="stroke:#181818;stroke-width:1.5;" x1="587.5" x2="597.5" y1="198.8906" y2="198.8906"/><rect fill="#F1F1F1" height="33.9688" style="stroke:#181818;stroke-width:1.5;" width="53" x="597.5" y="181.9063"/><text fill="#000000" font-family="sans-serif" font-size="12" lengthAdjust="spacing" textLength="33" x="607.5" y="203.0449">React</text><line style="stroke:#181818;stroke-width:1.5;" x1="624" x2="634" y1="247.8594" y2="247.8594"/><rect fill="#F1F1F1" height="33.9688" style="stroke:#181818;stroke-width:1.5;" width="90" x="634" y="230.875"/><text fill="#000000" font-family="sans-serif" font-size="12" lengthAdjust="spacing" textLength="70" x="644" y="252.0137">ReactAdmin</text><line style="stroke:#181818;stroke-width:1.5;" x1="624" x2="624" y1="215.875" y2="247.8594"/><line style="stroke:#181818;stroke-width:1.5;" x1="587.5" x2="587.5" y1="166.9063" y2="198.8906"/><line style="stroke:#181818;stroke-width:1.5;" x1="537.5" x2="537.5" y1="117.9375" y2="149.9219"/><line style="stroke:#181818;stroke-width:1.5;" x1="831.5" x2="831.5" y1="63.9688" y2="83.9688"/><rect fill="#F1F1F1" height="33.9688" style="stroke:#181818;stroke-width:1.5;" width="175" x="744" y="83.9688"/><text fill="#000000" font-family="sans-serif" font-size="12" lengthAdjust="spacing" textLength="155" x="754" y="105.1074">Capa de negocio/dominio</text><line style="stroke:#181818;stroke-width:1.5;" x1="831.5" x2="841.5" y1="149.9219" y2="149.9219"/><rect fill="#F1F1F1" height="33.9688" style="stroke:#181818;stroke-width:1.5;" width="80" x="841.5" y="132.9375"/><text fill="#000000" font-family="sans-serif" font-size="12" lengthAdjust="spacing" textLength="60" x="851.5" y="154.0762">JavaScript</text><line style="stroke:#181818;stroke-width:1.5;" x1="881.5" x2="891.5" y1="198.8906" y2="198.8906"/><rect fill="#F1F1F1" height="33.9688" style="stroke:#181818;stroke-width:1.5;" width="64" x="891.5" y="181.9063"/><text fill="#000000" font-family="sans-serif" font-size="12" lengthAdjust="spacing" textLength="44" x="901.5" y="203.0449">NodeJS</text><line style="stroke:#181818;stroke-width:1.5;" x1="923.5" x2="933.5" y1="247.8594" y2="247.8594"/><rect fill="#F1F1F1" height="33.9688" style="stroke:#181818;stroke-width:1.5;" width="75" x="933.5" y="230.875"/><text fill="#000000" font-family="sans-serif" font-size="12" lengthAdjust="spacing" textLength="55" x="943.5" y="252.0137">Express?</text><line style="stroke:#181818;stroke-width:1.5;" x1="923.5" x2="933.5" y1="296.8281" y2="296.8281"/><rect fill="#F1F1F1" height="33.9688" style="stroke:#181818;stroke-width:1.5;" width="78" x="933.5" y="279.8438"/><text fill="#000000" font-family="sans-serif" font-size="12" lengthAdjust="spacing" textLength="58" x="943.5" y="300.9824">GraphQL?</text><line style="stroke:#181818;stroke-width:1.5;" x1="923.5" x2="933.5" y1="345.7969" y2="345.7969"/><rect fill="#F1F1F1" height="33.9688" style="stroke:#181818;stroke-width:1.5;" width="90" x="933.5" y="328.8125"/><text fill="#000000" font-family="sans-serif" font-size="12" lengthAdjust="spacing" textLength="70" x="943.5" y="349.9512">Moongose?</text><line style="stroke:#181818;stroke-width:1.5;" x1="923.5" x2="923.5" y1="215.875" y2="345.7969"/><line style="stroke:#181818;stroke-width:1.5;" x1="881.5" x2="881.5" y1="166.9063" y2="198.8906"/><line style="stroke:#181818;stroke-width:1.5;" x1="831.5" x2="831.5" y1="117.9375" y2="149.9219"/><line style="stroke:#181818;stroke-width:1.5;" x1="1097.5" x2="1097.5" y1="63.9688" y2="83.9688"/><rect fill="#F1F1F1" height="33.9688" style="stroke:#181818;stroke-width:1.5;" width="108" x="1043.5" y="83.9688"/><text fill="#000000" font-family="sans-serif" font-size="12" lengthAdjust="spacing" textLength="88" x="1053.5" y="105.1074">Capa de datos</text><line style="stroke:#181818;stroke-width:1.5;" x1="1097.5" x2="1107.5" y1="149.9219" y2="149.9219"/><rect fill="#F1F1F1" height="33.9688" style="stroke:#181818;stroke-width:1.5;" width="86" x="1107.5" y="132.9375"/><text fill="#000000" font-family="sans-serif" font-size="12" lengthAdjust="spacing" textLength="66" x="1117.5" y="154.0762">Excel (.xlx)</text><line style="stroke:#181818;stroke-width:1.5;" x1="1097.5" x2="1107.5" y1="198.8906" y2="198.8906"/><rect fill="#F1F1F1" height="33.9688" style="stroke:#181818;stroke-width:1.5;" width="78" x="1107.5" y="181.9063"/><text fill="#000000" font-family="sans-serif" font-size="12" lengthAdjust="spacing" textLength="58" x="1117.5" y="203.0449">MongoDB</text><line style="stroke:#181818;stroke-width:1.5;" x1="1097.5" x2="1097.5" y1="117.9375" y2="198.8906"/><line style="stroke:#181818;stroke-width:1.5;" x1="1270" x2="1270" y1="63.9688" y2="83.9688"/><rect fill="#F1F1F1" height="33.9688" style="stroke:#181818;stroke-width:1.5;" width="113" x="1213.5" y="83.9688"/><text fill="#000000" font-family="sans-serif" font-size="12" lengthAdjust="spacing" textLength="93" x="1223.5" y="105.1074">Documentación</text><line style="stroke:#181818;stroke-width:1.5;" x1="1270" x2="1280" y1="149.9219" y2="149.9219"/><rect fill="#F1F1F1" height="33.9688" style="stroke:#181818;stroke-width:1.5;" width="139" x="1280" y="132.9375"/><text fill="#000000" font-family="sans-serif" font-size="12" lengthAdjust="spacing" textLength="119" x="1290" y="154.0762">Referente a gestión</text><line style="stroke:#181818;stroke-width:1.5;" x1="1349.5" x2="1359.5" y1="198.8906" y2="198.8906"/><rect fill="#F1F1F1" height="33.9688" style="stroke:#181818;stroke-width:1.5;" width="58" x="1359.5" y="181.9063"/><text fill="#000000" font-family="sans-serif" font-size="12" lengthAdjust="spacing" textLength="38" x="1369.5" y="203.0449">Notion</text><line style="stroke:#181818;stroke-width:1.5;" x1="1349.5" x2="1349.5" y1="166.9063" y2="198.8906"/><line style="stroke:#181818;stroke-width:1.5;" x1="1270" x2="1280" y1="247.8594" y2="247.8594"/><rect fill="#F1F1F1" height="33.9688" style="stroke:#181818;stroke-width:1.5;" width="159" x="1280" y="230.875"/><text fill="#000000" font-family="sans-serif" font-size="12" lengthAdjust="spacing" textLength="139" x="1290" y="252.0137">Referente al desarrollo</text><line style="stroke:#181818;stroke-width:1.5;" x1="1359.5" x2="1369.5" y1="296.8281" y2="296.8281"/><rect fill="#F1F1F1" height="33.9688" style="stroke:#181818;stroke-width:1.5;" width="130" x="1369.5" y="279.8438"/><text fill="#000000" font-family="sans-serif" font-size="12" lengthAdjust="spacing" textLength="110" x="1379.5" y="300.9824">GitHub, Markdown</text><line style="stroke:#181818;stroke-width:1.5;" x1="1359.5" x2="1359.5" y1="264.8438" y2="296.8281"/><line style="stroke:#181818;stroke-width:1.5;" x1="1270" x2="1270" y1="117.9375" y2="247.8594"/><line style="stroke:#181818;stroke-width:1.5;" x1="1590.5" x2="1590.5" y1="63.9688" y2="83.9688"/><rect fill="#F1F1F1" height="33.9688" style="stroke:#181818;stroke-width:1.5;" width="142" x="1519.5" y="83.9688"/><text fill="#000000" font-family="sans-serif" font-size="12" lengthAdjust="spacing" textLength="122" x="1529.5" y="105.1074">Vista de Despliegue</text><line style="stroke:#181818;stroke-width:1.5;" x1="1590.5" x2="1600.5" y1="149.9219" y2="149.9219"/><rect fill="#F1F1F1" height="33.9688" style="stroke:#181818;stroke-width:1.5;" width="214" x="1600.5" y="132.9375"/><text fill="#000000" font-family="sans-serif" font-size="12" lengthAdjust="spacing" textLength="194" x="1610.5" y="154.0762">Continua integracion/despliegue</text><line style="stroke:#181818;stroke-width:1.5;" x1="1707.5" x2="1717.5" y1="198.8906" y2="198.8906"/><rect fill="#F1F1F1" height="33.9688" style="stroke:#181818;stroke-width:1.5;" width="101" x="1717.5" y="181.9063"/><text fill="#000000" font-family="sans-serif" font-size="12" lengthAdjust="spacing" textLength="81" x="1727.5" y="203.0449">GitHub Action</text><line style="stroke:#181818;stroke-width:1.5;" x1="1707.5" x2="1707.5" y1="166.9063" y2="198.8906"/><line style="stroke:#181818;stroke-width:1.5;" x1="1590.5" x2="1600.5" y1="247.8594" y2="247.8594"/><rect fill="#F1F1F1" height="33.9688" style="stroke:#181818;stroke-width:1.5;" width="164" x="1600.5" y="230.875"/><text fill="#000000" font-family="sans-serif" font-size="12" lengthAdjust="spacing" textLength="144" x="1610.5" y="252.0137">Servidor de producción</text><line style="stroke:#181818;stroke-width:1.5;" x1="1682.5" x2="1692.5" y1="296.8281" y2="296.8281"/><rect fill="#F1F1F1" height="33.9688" style="stroke:#181818;stroke-width:1.5;" width="34" x="1692.5" y="279.8438"/><text fill="#000000" font-family="sans-serif" font-size="12" lengthAdjust="spacing" textLength="14" x="1702.5" y="300.9824">A?</text><line style="stroke:#181818;stroke-width:1.5;" x1="1682.5" x2="1682.5" y1="264.8438" y2="296.8281"/><line style="stroke:#181818;stroke-width:1.5;" x1="1590.5" x2="1600.5" y1="345.7969" y2="345.7969"/><rect fill="#F1F1F1" height="33.9688" style="stroke:#181818;stroke-width:1.5;" width="115" x="1600.5" y="328.8125"/><text fill="#000000" font-family="sans-serif" font-size="12" lengthAdjust="spacing" textLength="95" x="1610.5" y="349.9512">Desarrollo local</text><line style="stroke:#181818;stroke-width:1.5;" x1="1658" x2="1668" y1="394.7656" y2="394.7656"/><rect fill="#F1F1F1" height="33.9688" style="stroke:#181818;stroke-width:1.5;" width="34" x="1668" y="377.7813"/><text fill="#000000" font-family="sans-serif" font-size="12" lengthAdjust="spacing" textLength="14" x="1678" y="398.9199">B?</text><line style="stroke:#181818;stroke-width:1.5;" x1="1658" x2="1658" y1="362.7813" y2="394.7656"/><line style="stroke:#181818;stroke-width:1.5;" x1="1590.5" x2="1590.5" y1="117.9375" y2="345.7969"/><line style="stroke:#181818;stroke-width:1.5;" x1="83.5" x2="1590.5" y1="63.9688" y2="63.9688"/><rect fill="#F1F1F1" height="33.9688" style="stroke:#181818;stroke-width:1.5;" width="89" x="792.5" y="10"/><text fill="#000000" font-family="sans-serif" font-size="12" lengthAdjust="spacing" textLength="69" x="802.5" y="31.1387">Ecosistema</text><line style="stroke:#181818;stroke-width:1.5;" x1="837" x2="837" y1="43.9688" y2="63.9688"/><!--MD5=[d9a01eea071f8b794b40c46d03cdb04a]
@startwbs
* Ecosistema
** Control de versiones
*** Git
*** GitHub
** Pruebas unitarias
*** Jest
** Modelado
*** PlantUML
** Capa de presentación
*** JavaScript
**** React
***** ReactAdmin
** Capa de negocio/dominio
*** JavaScript
**** NodeJS
***** Express?
***** GraphQL?
***** Moongose?
** Capa de datos
*** Excel (.xlx)
*** MongoDB
** Documentación
*** Referente a gestión
**** Notion
*** Referente al desarrollo
**** GitHub, Markdown
** Vista de Despliegue
*** Continua integracion/despliegue
**** GitHub Action
*** Servidor de producción
**** A?
*** Desarrollo local
**** B?
@endwbs

PlantUML version 1.2022.7beta11(Unknown compile time)
(GPL source distribution)
Java Runtime: Java(TM) SE Runtime Environment
JVM: Java HotSpot(TM) 64-Bit Server VM
Default Encoding: UTF-8
Language: en
Country: US
--></g></svg>