<?xml version="1.0" encoding="UTF-8" standalone="no"?><svg xmlns="http://www.w3.org/2000/svg" xmlns:xlink="http://www.w3.org/1999/xlink" contentStyleType="text/css" height="422px" preserveAspectRatio="none" style="width:3526px;height:422px;background:#FFFFFF;" version="1.1" viewBox="0 0 3526 422" width="3526px" zoomAndPan="magnify"><defs/><g><line style="stroke:#181818;stroke-width:1.5;" x1="126" x2="126" y1="63.9688" y2="83.9688"/><rect fill="#F1F1F1" height="33.9688" style="stroke:#181818;stroke-width:1.5;" width="232" x="10" y="83.9688"/><text fill="#000000" font-family="sans-serif" font-size="12" lengthAdjust="spacing" textLength="212" x="20" y="105.1074">Proceso de desarrollo de software</text><line style="stroke:#181818;stroke-width:1.5;" x1="126" x2="136" y1="149.9219" y2="149.9219"/><rect fill="#F1F1F1" height="33.9688" style="stroke:#181818;stroke-width:1.5;" width="45" x="136" y="132.9375"/><text fill="#000000" font-family="sans-serif" font-size="12" lengthAdjust="spacing" textLength="25" x="146" y="154.0762">RUP.</text><line style="stroke:#181818;stroke-width:1.5;" x1="126" x2="136" y1="198.8906" y2="198.8906"/><rect fill="#F1F1F1" height="33.9688" style="stroke:#181818;stroke-width:1.5;" width="170" x="136" y="181.9063"/><text fill="#000000" font-family="sans-serif" font-size="12" lengthAdjust="spacing" textLength="150" x="146" y="203.0449">Minutas en Google Docs.</text><line style="stroke:#181818;stroke-width:1.5;" x1="126" x2="136" y1="247.8594" y2="247.8594"/><rect fill="#F1F1F1" height="33.9688" style="stroke:#181818;stroke-width:1.5;" width="316" x="136" y="230.875"/><text fill="#000000" font-family="sans-serif" font-size="12" lengthAdjust="spacing" textLength="292" x="146" y="252.0137">Cada correo debe pasar por la profesora Judith.</text><line style="stroke:#181818;stroke-width:1.5;" x1="126" x2="126" y1="117.9375" y2="247.8594"/><line style="stroke:#181818;stroke-width:1.5;" x1="545.5" x2="545.5" y1="63.9688" y2="83.9688"/><rect fill="#F1F1F1" height="33.9688" style="stroke:#181818;stroke-width:1.5;" width="147" x="472" y="83.9688"/><text fill="#000000" font-family="sans-serif" font-size="12" lengthAdjust="spacing" textLength="127" x="482" y="105.1074">Control de versiones</text><line style="stroke:#181818;stroke-width:1.5;" x1="545.5" x2="555.5" y1="149.9219" y2="149.9219"/><rect fill="#F1F1F1" height="33.9688" style="stroke:#181818;stroke-width:1.5;" width="36" x="555.5" y="132.9375"/><text fill="#000000" font-family="sans-serif" font-size="12" lengthAdjust="spacing" textLength="16" x="565.5" y="154.0762">Git</text><line style="stroke:#181818;stroke-width:1.5;" x1="545.5" x2="555.5" y1="198.8906" y2="198.8906"/><rect fill="#F1F1F1" height="33.9688" style="stroke:#181818;stroke-width:1.5;" width="60" x="555.5" y="181.9063"/><text fill="#000000" font-family="sans-serif" font-size="12" lengthAdjust="spacing" textLength="40" x="565.5" y="203.0449">GitHub</text><line style="stroke:#181818;stroke-width:1.5;" x1="545.5" x2="545.5" y1="117.9375" y2="198.8906"/><line style="stroke:#181818;stroke-width:1.5;" x1="673" x2="673" y1="63.9688" y2="83.9688"/><rect fill="#F1F1F1" height="33.9688" style="stroke:#181818;stroke-width:1.5;" width="68" x="639" y="83.9688"/><text fill="#000000" font-family="sans-serif" font-size="12" lengthAdjust="spacing" textLength="48" x="649" y="105.1074">Pruebas</text><line style="stroke:#181818;stroke-width:1.5;" x1="673" x2="683" y1="149.9219" y2="149.9219"/><rect fill="#F1F1F1" height="33.9688" style="stroke:#181818;stroke-width:1.5;" width="122" x="683" y="132.9375"/><text fill="#000000" font-family="sans-serif" font-size="12" lengthAdjust="spacing" textLength="102" x="693" y="154.0762">Pruebas unitarias</text><line style="stroke:#181818;stroke-width:1.5;" x1="744" x2="754" y1="198.8906" y2="198.8906"/><rect fill="#F1F1F1" height="33.9688" style="stroke:#181818;stroke-width:1.5;" width="43" x="754" y="181.9063"/><text fill="#000000" font-family="sans-serif" font-size="12" lengthAdjust="spacing" textLength="23" x="764" y="203.0449">Jest</text><line style="stroke:#181818;stroke-width:1.5;" x1="744" x2="744" y1="166.9063" y2="198.8906"/><line style="stroke:#181818;stroke-width:1.5;" x1="673" x2="683" y1="247.8594" y2="247.8594"/><rect fill="#F1F1F1" height="33.9688" style="stroke:#181818;stroke-width:1.5;" width="159" x="683" y="230.875"/><text fill="#000000" font-family="sans-serif" font-size="12" lengthAdjust="spacing" textLength="139" x="693" y="252.0137">Pruebas de integración</text><line style="stroke:#181818;stroke-width:1.5;" x1="762.5" x2="772.5" y1="296.8281" y2="296.8281"/><rect fill="#F1F1F1" height="33.9688" style="stroke:#181818;stroke-width:1.5;" width="312" x="772.5" y="279.8438"/><text fill="#000000" font-family="sans-serif" font-size="12" lengthAdjust="spacing" textLength="292" x="782.5" y="300.9824">Cypress. Usamos el servidor de preproducción.</text><line style="stroke:#181818;stroke-width:1.5;" x1="762.5" x2="762.5" y1="264.8438" y2="296.8281"/><line style="stroke:#181818;stroke-width:1.5;" x1="673" x2="673" y1="117.9375" y2="247.8594"/><line style="stroke:#181818;stroke-width:1.5;" x1="1144.5" x2="1144.5" y1="63.9688" y2="83.9688"/><rect fill="#F1F1F1" height="33.9688" style="stroke:#181818;stroke-width:1.5;" width="80" x="1104.5" y="83.9688"/><text fill="#000000" font-family="sans-serif" font-size="12" lengthAdjust="spacing" textLength="60" x="1114.5" y="105.1074">Modelado</text><line style="stroke:#181818;stroke-width:1.5;" x1="1144.5" x2="1154.5" y1="149.9219" y2="149.9219"/><rect fill="#F1F1F1" height="33.9688" style="stroke:#181818;stroke-width:1.5;" width="233" x="1154.5" y="132.9375"/><text fill="#000000" font-family="sans-serif" font-size="12" lengthAdjust="spacing" textLength="213" x="1164.5" y="154.0762">MermaidJS (por defecto en notion).</text><line style="stroke:#181818;stroke-width:1.5;" x1="1144.5" x2="1154.5" y1="198.8906" y2="198.8906"/><rect fill="#F1F1F1" height="33.9688" style="stroke:#181818;stroke-width:1.5;" width="410" x="1154.5" y="181.9063"/><text fill="#000000" font-family="sans-serif" font-size="12" lengthAdjust="spacing" textLength="390" x="1164.5" y="203.0449">PlantUML (cuando MermaidJS no permita modelar, usamos este).</text><line style="stroke:#181818;stroke-width:1.5;" x1="1144.5" x2="1144.5" y1="117.9375" y2="198.8906"/><line style="stroke:#181818;stroke-width:1.5;" x1="1661" x2="1661" y1="63.9688" y2="83.9688"/><rect fill="#F1F1F1" height="33.9688" style="stroke:#181818;stroke-width:1.5;" width="153" x="1584.5" y="83.9688"/><text fill="#000000" font-family="sans-serif" font-size="12" lengthAdjust="spacing" textLength="133" x="1594.5" y="105.1074">Capa de presentación</text><line style="stroke:#181818;stroke-width:1.5;" x1="1661" x2="1671" y1="149.9219" y2="149.9219"/><rect fill="#F1F1F1" height="33.9688" style="stroke:#181818;stroke-width:1.5;" width="151" x="1671" y="132.9375"/><text fill="#000000" font-family="sans-serif" font-size="12" lengthAdjust="spacing" textLength="131" x="1681" y="154.0762">TypeScript-NPM-Node</text><line style="stroke:#181818;stroke-width:1.5;" x1="1746.5" x2="1756.5" y1="198.8906" y2="198.8906"/><rect fill="#F1F1F1" height="33.9688" style="stroke:#181818;stroke-width:1.5;" width="90" x="1756.5" y="181.9063"/><text fill="#000000" font-family="sans-serif" font-size="12" lengthAdjust="spacing" textLength="70" x="1766.5" y="203.0449">ReactAdmin</text><line style="stroke:#181818;stroke-width:1.5;" x1="1746.5" x2="1746.5" y1="166.9063" y2="198.8906"/><line style="stroke:#181818;stroke-width:1.5;" x1="1661" x2="1661" y1="117.9375" y2="149.9219"/><line style="stroke:#181818;stroke-width:1.5;" x1="1959.5" x2="1959.5" y1="63.9688" y2="83.9688"/><rect fill="#F1F1F1" height="33.9688" style="stroke:#181818;stroke-width:1.5;" width="186" x="1866.5" y="83.9688"/><text fill="#000000" font-family="sans-serif" font-size="12" lengthAdjust="spacing" textLength="166" x="1876.5" y="105.1074">Interfaces de comunicación</text><line style="stroke:#181818;stroke-width:1.5;" x1="1959.5" x2="1969.5" y1="149.9219" y2="149.9219"/><rect fill="#F1F1F1" height="33.9688" style="stroke:#181818;stroke-width:1.5;" width="99" x="1969.5" y="132.9375"/><text fill="#000000" font-family="sans-serif" font-size="12" lengthAdjust="spacing" textLength="79" x="1979.5" y="154.0762">Servicio web</text><line style="stroke:#181818;stroke-width:1.5;" x1="1959.5" x2="1969.5" y1="198.8906" y2="198.8906"/><rect fill="#F1F1F1" height="33.9688" style="stroke:#181818;stroke-width:1.5;" width="50" x="1969.5" y="181.9063"/><text fill="#000000" font-family="sans-serif" font-size="12" lengthAdjust="spacing" textLength="30" x="1979.5" y="203.0449">JSON</text><line style="stroke:#181818;stroke-width:1.5;" x1="1959.5" x2="1969.5" y1="247.8594" y2="247.8594"/><rect fill="#F1F1F1" height="33.9688" style="stroke:#181818;stroke-width:1.5;" width="70" x="1969.5" y="230.875"/><text fill="#000000" font-family="sans-serif" font-size="12" lengthAdjust="spacing" textLength="50" x="1979.5" y="252.0137">API REST</text><line style="stroke:#181818;stroke-width:1.5;" x1="1959.5" x2="1969.5" y1="296.8281" y2="296.8281"/><rect fill="#F1F1F1" height="33.9688" style="stroke:#181818;stroke-width:1.5;" width="129" x="1969.5" y="279.8438"/><text fill="#000000" font-family="sans-serif" font-size="12" lengthAdjust="spacing" textLength="109" x="1979.5" y="300.9824">Pruebas manuales</text><line style="stroke:#181818;stroke-width:1.5;" x1="2034" x2="2044" y1="345.7969" y2="345.7969"/><rect fill="#F1F1F1" height="33.9688" style="stroke:#181818;stroke-width:1.5;" width="70" x="2044" y="328.8125"/><text fill="#000000" font-family="sans-serif" font-size="12" lengthAdjust="spacing" textLength="50" x="2054" y="349.9512">Postman</text><line style="stroke:#181818;stroke-width:1.5;" x1="2034" x2="2034" y1="313.8125" y2="345.7969"/><line style="stroke:#181818;stroke-width:1.5;" x1="1959.5" x2="1959.5" y1="117.9375" y2="296.8281"/><line style="stroke:#181818;stroke-width:1.5;" x1="2223.5" x2="2223.5" y1="63.9688" y2="83.9688"/><rect fill="#F1F1F1" height="33.9688" style="stroke:#181818;stroke-width:1.5;" width="179" x="2134" y="83.9688"/><text fill="#000000" font-family="sans-serif" font-size="12" lengthAdjust="spacing" textLength="155" x="2144" y="105.1074">Capa de negocio/dominio</text><line style="stroke:#181818;stroke-width:1.5;" x1="2223.5" x2="2233.5" y1="149.9219" y2="149.9219"/><rect fill="#F1F1F1" height="33.9688" style="stroke:#181818;stroke-width:1.5;" width="93" x="2233.5" y="132.9375"/><text fill="#000000" font-family="sans-serif" font-size="12" lengthAdjust="spacing" textLength="73" x="2243.5" y="154.0762">Tecnologías</text><line style="stroke:#181818;stroke-width:1.5;" x1="2280" x2="2290" y1="198.8906" y2="198.8906"/><rect fill="#F1F1F1" height="33.9688" style="stroke:#181818;stroke-width:1.5;" width="197" x="2290" y="181.9063"/><text fill="#000000" font-family="sans-serif" font-size="12" lengthAdjust="spacing" textLength="177" x="2300" y="203.0449">JavaScript,TypeScript,NodeJS</text><line style="stroke:#181818;stroke-width:1.5;" x1="2388.5" x2="2398.5" y1="247.8594" y2="247.8594"/><rect fill="#F1F1F1" height="33.9688" style="stroke:#181818;stroke-width:1.5;" width="59" x="2398.5" y="230.875"/><text fill="#000000" font-family="sans-serif" font-size="12" lengthAdjust="spacing" textLength="39" x="2408.5" y="252.0137">NextJS</text><line style="stroke:#181818;stroke-width:1.5;" x1="2388.5" x2="2398.5" y1="296.8281" y2="296.8281"/><rect fill="#F1F1F1" height="33.9688" style="stroke:#181818;stroke-width:1.5;" width="84" x="2398.5" y="279.8438"/><text fill="#000000" font-family="sans-serif" font-size="12" lengthAdjust="spacing" textLength="64" x="2408.5" y="300.9824">Moongose</text><line style="stroke:#181818;stroke-width:1.5;" x1="2388.5" x2="2388.5" y1="215.875" y2="296.8281"/><line style="stroke:#181818;stroke-width:1.5;" x1="2280" x2="2280" y1="166.9063" y2="198.8906"/><line style="stroke:#181818;stroke-width:1.5;" x1="2223.5" x2="2223.5" y1="117.9375" y2="149.9219"/><line style="stroke:#181818;stroke-width:1.5;" x1="2561" x2="2561" y1="63.9688" y2="83.9688"/><rect fill="#F1F1F1" height="33.9688" style="stroke:#181818;stroke-width:1.5;" width="108" x="2507" y="83.9688"/><text fill="#000000" font-family="sans-serif" font-size="12" lengthAdjust="spacing" textLength="88" x="2517" y="105.1074">Capa de datos</text><line style="stroke:#181818;stroke-width:1.5;" x1="2561" x2="2571" y1="149.9219" y2="149.9219"/><rect fill="#F1F1F1" height="33.9688" style="stroke:#181818;stroke-width:1.5;" width="90" x="2571" y="132.9375"/><text fill="#000000" font-family="sans-serif" font-size="12" lengthAdjust="spacing" textLength="70" x="2581" y="154.0762">Excel (.csv)</text><line style="stroke:#181818;stroke-width:1.5;" x1="2561" x2="2571" y1="198.8906" y2="198.8906"/><rect fill="#F1F1F1" height="33.9688" style="stroke:#181818;stroke-width:1.5;" width="78" x="2571" y="181.9063"/><text fill="#000000" font-family="sans-serif" font-size="12" lengthAdjust="spacing" textLength="58" x="2581" y="203.0449">MongoDB</text><line style="stroke:#181818;stroke-width:1.5;" x1="2561" x2="2571" y1="247.8594" y2="247.8594"/><rect fill="#F1F1F1" height="33.9688" style="stroke:#181818;stroke-width:1.5;" width="95" x="2571" y="230.875"/><text fill="#000000" font-family="sans-serif" font-size="12" lengthAdjust="spacing" textLength="75" x="2581" y="252.0137">API Cimarrón</text><line style="stroke:#181818;stroke-width:1.5;" x1="2561" x2="2561" y1="117.9375" y2="247.8594"/><line style="stroke:#181818;stroke-width:1.5;" x1="2742.5" x2="2742.5" y1="63.9688" y2="83.9688"/><rect fill="#F1F1F1" height="33.9688" style="stroke:#181818;stroke-width:1.5;" width="113" x="2686" y="83.9688"/><text fill="#000000" font-family="sans-serif" font-size="12" lengthAdjust="spacing" textLength="93" x="2696" y="105.1074">Documentación</text><line style="stroke:#181818;stroke-width:1.5;" x1="2742.5" x2="2752.5" y1="149.9219" y2="149.9219"/><rect fill="#F1F1F1" height="33.9688" style="stroke:#181818;stroke-width:1.5;" width="139" x="2752.5" y="132.9375"/><text fill="#000000" font-family="sans-serif" font-size="12" lengthAdjust="spacing" textLength="119" x="2762.5" y="154.0762">Referente a gestión</text><line style="stroke:#181818;stroke-width:1.5;" x1="2822" x2="2832" y1="198.8906" y2="198.8906"/><rect fill="#F1F1F1" height="33.9688" style="stroke:#181818;stroke-width:1.5;" width="58" x="2832" y="181.9063"/><text fill="#000000" font-family="sans-serif" font-size="12" lengthAdjust="spacing" textLength="38" x="2842" y="203.0449">Notion</text><line style="stroke:#181818;stroke-width:1.5;" x1="2822" x2="2822" y1="166.9063" y2="198.8906"/><line style="stroke:#181818;stroke-width:1.5;" x1="2742.5" x2="2752.5" y1="247.8594" y2="247.8594"/><rect fill="#F1F1F1" height="33.9688" style="stroke:#181818;stroke-width:1.5;" width="159" x="2752.5" y="230.875"/><text fill="#000000" font-family="sans-serif" font-size="12" lengthAdjust="spacing" textLength="139" x="2762.5" y="252.0137">Referente al desarrollo</text><line style="stroke:#181818;stroke-width:1.5;" x1="2832" x2="2842" y1="296.8281" y2="296.8281"/><rect fill="#F1F1F1" height="33.9688" style="stroke:#181818;stroke-width:1.5;" width="130" x="2842" y="279.8438"/><text fill="#000000" font-family="sans-serif" font-size="12" lengthAdjust="spacing" textLength="110" x="2852" y="300.9824">GitHub, Markdown</text><line style="stroke:#181818;stroke-width:1.5;" x1="2832" x2="2832" y1="264.8438" y2="296.8281"/><line style="stroke:#181818;stroke-width:1.5;" x1="2742.5" x2="2742.5" y1="117.9375" y2="247.8594"/><line style="stroke:#181818;stroke-width:1.5;" x1="3063" x2="3063" y1="63.9688" y2="83.9688"/><rect fill="#F1F1F1" height="33.9688" style="stroke:#181818;stroke-width:1.5;" width="142" x="2992" y="83.9688"/><text fill="#000000" font-family="sans-serif" font-size="12" lengthAdjust="spacing" textLength="122" x="3002" y="105.1074">Vista de Despliegue</text><line style="stroke:#181818;stroke-width:1.5;" x1="3063" x2="3073" y1="149.9219" y2="149.9219"/><rect fill="#F1F1F1" height="33.9688" style="stroke:#181818;stroke-width:1.5;" width="214" x="3073" y="132.9375"/><text fill="#000000" font-family="sans-serif" font-size="12" lengthAdjust="spacing" textLength="194" x="3083" y="154.0762">Continua integracion/despliegue</text><line style="stroke:#181818;stroke-width:1.5;" x1="3180" x2="3190" y1="198.8906" y2="198.8906"/><rect fill="#F1F1F1" height="33.9688" style="stroke:#181818;stroke-width:1.5;" width="101" x="3190" y="181.9063"/><text fill="#000000" font-family="sans-serif" font-size="12" lengthAdjust="spacing" textLength="81" x="3200" y="203.0449">GitHub Action</text><line style="stroke:#181818;stroke-width:1.5;" x1="3180" x2="3180" y1="166.9063" y2="198.8906"/><line style="stroke:#181818;stroke-width:1.5;" x1="3063" x2="3073" y1="247.8594" y2="247.8594"/><rect fill="#F1F1F1" height="33.9688" style="stroke:#181818;stroke-width:1.5;" width="164" x="3073" y="230.875"/><text fill="#000000" font-family="sans-serif" font-size="12" lengthAdjust="spacing" textLength="144" x="3083" y="252.0137">Servidor de producción</text><line style="stroke:#181818;stroke-width:1.5;" x1="3155" x2="3165" y1="296.8281" y2="296.8281"/><rect fill="#F1F1F1" height="33.9688" style="stroke:#181818;stroke-width:1.5;" width="173" x="3165" y="279.8438"/><text fill="#000000" font-family="sans-serif" font-size="12" lengthAdjust="spacing" textLength="153" x="3175" y="300.9824">Coordinación en Mexicali.</text><line style="stroke:#181818;stroke-width:1.5;" x1="3155" x2="3155" y1="264.8438" y2="296.8281"/><line style="stroke:#181818;stroke-width:1.5;" x1="3063" x2="3073" y1="345.7969" y2="345.7969"/><rect fill="#F1F1F1" height="33.9688" style="stroke:#181818;stroke-width:1.5;" width="196" x="3073" y="328.8125"/><text fill="#000000" font-family="sans-serif" font-size="12" lengthAdjust="spacing" textLength="176" x="3083" y="349.9512">Desarrollo de preproducción</text><line style="stroke:#181818;stroke-width:1.5;" x1="3171" x2="3181" y1="394.7656" y2="394.7656"/><rect fill="#F1F1F1" height="33.9688" style="stroke:#181818;stroke-width:1.5;" width="334" x="3181" y="377.7813"/><text fill="#000000" font-family="sans-serif" font-size="12" lengthAdjust="spacing" textLength="314" x="3191" y="398.9199">Computadora proporcionada por la profesora Judith</text><line style="stroke:#181818;stroke-width:1.5;" x1="3171" x2="3171" y1="362.7813" y2="394.7656"/><line style="stroke:#181818;stroke-width:1.5;" x1="3063" x2="3063" y1="117.9375" y2="345.7969"/><line style="stroke:#181818;stroke-width:1.5;" x1="126" x2="3063" y1="63.9688" y2="63.9688"/><rect fill="#F1F1F1" height="33.9688" style="stroke:#181818;stroke-width:1.5;" width="89" x="1550" y="10"/><text fill="#000000" font-family="sans-serif" font-size="12" lengthAdjust="spacing" textLength="69" x="1560" y="31.1387">Ecosistema</text><line style="stroke:#181818;stroke-width:1.5;" x1="1594.5" x2="1594.5" y1="43.9688" y2="63.9688"/><!--MD5=[91c91b4ccb7cc0976508114fed8c7eb1]
@startwbs
* Ecosistema
** Proceso de desarrollo de software
*** RUP.
*** Minutas en Google Docs.
*** Cada correo debe pasar por la profesora Judith. 
** Control de versiones
*** Git
*** GitHub
** Pruebas
*** Pruebas unitarias
**** Jest
*** Pruebas de integración
**** Cypress. Usamos el servidor de preproducción.
** Modelado
*** MermaidJS (por defecto en notion).
*** PlantUML (cuando MermaidJS no permita modelar, usamos este).
** Capa de presentación
*** TypeScript-NPM-Node
**** ReactAdmin
** Interfaces de comunicación
*** Servicio web
*** JSON
*** API REST
*** Pruebas manuales
**** Postman
** Capa de negocio/dominio 
*** Tecnologías
**** JavaScript,TypeScript,NodeJS
***** NextJS
***** Moongose
** Capa de datos
*** Excel (.csv)
*** MongoDB
*** API Cimarrón
** Documentación
*** Referente a gestión
**** Notion
*** Referente al desarrollo
**** GitHub, Markdown
** Vista de Despliegue
*** Continua integracion/despliegue
**** GitHub Action
*** Servidor de producción
**** Coordinación en Mexicali.
*** Desarrollo de preproducción
**** Computadora proporcionada por la profesora Judith
@endwbs

PlantUML version 1.2022.14beta7(Unknown compile time)
(GPL source distribution)
Java Runtime: Java(TM) SE Runtime Environment
JVM: Java HotSpot(TM) 64-Bit Server VM
Default Encoding: UTF-8
Language: en
Country: US
--></g></svg>